<svg width="132" height="39" viewBox="0 0 132 39" fill="none" xmlns="http://www.w3.org/2000/svg">
<path d="M1.86117 9.29868C1.86124 8.91351 2.01428 8.54414 2.28663 8.27179C2.55898 7.99944 2.92834 7.84642 3.31351 7.84635L4.32713 7.84486C5.04224 7.88397 5.72254 8.16605 6.25554 8.64439L11.0796 13.4685C11.4239 13.8128 11.6173 14.2797 11.6173 14.7666C11.6173 15.2534 11.4239 15.7204 11.0796 16.0647L3.7956 23.3487C3.63738 23.5062 3.43606 23.6133 3.21703 23.6566C2.99799 23.6999 2.77105 23.6775 2.56482 23.5919C2.35857 23.5064 2.18226 23.3617 2.05811 23.1762C1.93395 22.9906 1.86752 22.7724 1.86717 22.5492L1.86117 9.29868ZM16.573 31.1703C16.7964 31.17 17.0148 31.1033 17.2004 30.979C17.3861 30.8547 17.5307 30.678 17.6161 30.4716C17.7015 30.2651 17.7237 30.0379 17.6801 29.8187C17.6366 29.5998 17.529 29.3983 17.371 29.2403L10.081 21.9503C9.73672 21.606 9.26976 21.4126 8.78288 21.4126C8.29601 21.4126 7.82905 21.606 7.48478 21.9503L2.6592 26.7758C2.18158 27.3093 1.89964 27.9894 1.85968 28.7044L1.86119 29.7179C1.86124 30.1031 2.01426 30.4725 2.28661 30.7448C2.55896 31.0171 2.92834 31.1701 3.31351 31.1703H16.573ZM16.9338 17.0648C17.2786 17.4088 17.7458 17.6019 18.233 17.6016C18.7201 17.6013 19.1872 17.4077 19.5315 17.0633L24.3556 12.2392C24.8331 11.7058 25.1152 11.0257 25.1552 10.3108L25.155 9.29867C25.1549 8.91316 25.0016 8.54352 24.729 8.27093C24.4564 7.99834 24.0868 7.84508 23.7012 7.84486L10.4478 7.84186C10.2245 7.84221 10.0064 7.90866 9.82082 8.0328C9.63526 8.15695 9.4906 8.33326 9.40509 8.53951C9.31959 8.74574 9.29704 8.9727 9.34033 9.19174C9.3836 9.41077 9.49076 9.61208 9.64829 9.77029L16.9338 17.0648ZM20.7593 30.3409C21.2925 30.8195 21.9736 31.1011 22.6891 31.1388H23.7012C24.0864 31.1388 24.4558 30.9857 24.7281 30.7134C25.0006 30.441 25.1536 30.0716 25.1536 29.6865L25.1566 16.43C25.1573 16.2063 25.0914 15.9874 24.9674 15.8012C24.8435 15.615 24.6669 15.4698 24.4602 15.3841C24.2535 15.2985 24.0261 15.2761 23.8068 15.32C23.5875 15.3638 23.386 15.4719 23.2282 15.6305L15.9411 22.9175C15.5967 23.2619 15.4031 23.729 15.4028 24.2161C15.4025 24.7031 15.5956 25.1704 15.9396 25.5152L20.7593 30.3409Z" fill="#57F2BE"/>
<path d="M113.213 37.5455V13.5455H117.986V16.4773H118.202C118.414 16.0076 118.721 15.5303 119.122 15.0455C119.531 14.5531 120.062 14.144 120.713 13.8182C121.372 13.4849 122.19 13.3182 123.168 13.3182C124.44 13.3182 125.615 13.6515 126.69 14.3182C127.766 14.9773 128.626 15.9735 129.27 17.3068C129.914 18.6326 130.236 20.2955 130.236 22.2955C130.236 24.2424 129.921 25.8864 129.293 27.2273C128.671 28.5606 127.823 29.572 126.747 30.2614C125.679 30.9432 124.482 31.2841 123.156 31.2841C122.217 31.2841 121.418 31.1288 120.758 30.8182C120.107 30.5076 119.573 30.1174 119.156 29.6478C118.74 29.1705 118.421 28.6894 118.202 28.2046H118.054V37.5455H113.213ZM117.952 22.2728C117.952 23.3106 118.096 24.2159 118.383 24.9887C118.671 25.7614 119.088 26.3637 119.633 26.7955C120.179 27.2197 120.842 27.4318 121.622 27.4318C122.41 27.4318 123.077 27.2159 123.622 26.7841C124.168 26.3447 124.58 25.7387 124.861 24.9659C125.149 24.1856 125.293 23.2879 125.293 22.2728C125.293 21.2652 125.152 20.3788 124.872 19.6137C124.592 18.8485 124.179 18.25 123.633 17.8182C123.088 17.3864 122.418 17.1705 121.622 17.1705C120.834 17.1705 120.168 17.3788 119.622 17.7955C119.084 18.2121 118.671 18.8031 118.383 19.5682C118.096 20.3334 117.952 21.2349 117.952 22.2728Z" fill="white"/>
<path d="M104.335 7.72729H109.256V22.8409C109.256 24.5379 108.85 26.0227 108.04 27.2955C107.237 28.5682 106.112 29.5606 104.665 30.2728C103.218 30.9773 101.532 31.3296 99.6079 31.3296C97.6761 31.3296 95.9867 30.9773 94.5397 30.2728C93.0928 29.5606 91.9678 28.5682 91.1647 27.2955C90.3617 26.0227 89.9602 24.5379 89.9602 22.8409V7.72729H94.8807V22.4205C94.8807 23.3068 95.0738 24.0947 95.4602 24.7841C95.8541 25.4735 96.4072 26.0152 97.1193 26.4091C97.8314 26.8031 98.661 27 99.6079 27C100.562 27 101.392 26.8031 102.097 26.4091C102.809 26.0152 103.358 25.4735 103.744 24.7841C104.138 24.0947 104.335 23.3068 104.335 22.4205V7.72729Z" fill="white"/>
<path d="M74.1079 37.5455C73.4943 37.5455 72.9185 37.4962 72.3807 37.3978C71.8504 37.3068 71.411 37.1894 71.0625 37.0455L72.1534 33.4318C72.7216 33.6061 73.2329 33.7008 73.6875 33.7159C74.1496 33.7311 74.5473 33.625 74.8807 33.3978C75.2216 33.1705 75.4981 32.7841 75.7102 32.2387L75.9943 31.5L69.7329 13.5455H74.8238L78.4375 26.3637H78.6193L82.267 13.5455H87.392L80.6079 32.8864C80.2822 33.8258 79.839 34.644 79.2784 35.3409C78.7254 36.0455 78.0246 36.5871 77.1761 36.9659C76.3276 37.3523 75.3049 37.5455 74.1079 37.5455Z" fill="white"/>
<path d="M58.1591 31.3296C57.0454 31.3296 56.053 31.1364 55.1818 30.75C54.3106 30.3561 53.6212 29.7765 53.1136 29.0114C52.6136 28.2387 52.3636 27.2765 52.3636 26.125C52.3636 25.1553 52.5416 24.3409 52.8977 23.6818C53.2538 23.0227 53.7386 22.4924 54.3522 22.0909C54.9659 21.6894 55.6629 21.3864 56.4432 21.1818C57.231 20.9773 58.0568 20.8334 58.9204 20.75C59.9356 20.644 60.7538 20.5455 61.375 20.4546C61.9962 20.3561 62.4469 20.2121 62.7272 20.0228C63.0076 19.8334 63.1477 19.5531 63.1477 19.1818V19.1137C63.1477 18.394 62.9204 17.8371 62.4659 17.4432C62.0189 17.0493 61.3826 16.8523 60.5568 16.8523C59.6856 16.8523 58.9924 17.0455 58.4772 17.4318C57.9621 17.8106 57.6212 18.2879 57.4545 18.8637L52.9772 18.5C53.2045 17.4394 53.6515 16.5227 54.3182 15.75C54.9848 14.9697 55.8447 14.3712 56.8977 13.9546C57.9583 13.5303 59.1856 13.3182 60.5795 13.3182C61.5492 13.3182 62.4772 13.4318 63.3636 13.6591C64.2576 13.8864 65.0492 14.2387 65.7386 14.7159C66.4356 15.1932 66.9848 15.8068 67.3863 16.5568C67.7879 17.2993 67.9886 18.1894 67.9886 19.2273V31H63.3977V28.5796H63.2613C62.981 29.125 62.606 29.6061 62.1363 30.0228C61.6666 30.4318 61.1022 30.7538 60.4432 30.9887C59.7841 31.2159 59.0227 31.3296 58.1591 31.3296ZM59.5454 27.9887C60.2576 27.9887 60.8863 27.8485 61.4318 27.5682C61.9772 27.2803 62.4053 26.894 62.7159 26.4091C63.0265 25.9243 63.1818 25.375 63.1818 24.7614V22.9091C63.0303 23.0076 62.8219 23.0985 62.5568 23.1818C62.2992 23.2576 62.0076 23.3296 61.6818 23.3978C61.356 23.4584 61.0303 23.5152 60.7045 23.5682C60.3788 23.6137 60.0833 23.6553 59.8182 23.6932C59.25 23.7765 58.7538 23.9091 58.3295 24.0909C57.9053 24.2727 57.5757 24.519 57.3409 24.8296C57.106 25.1326 56.9886 25.5114 56.9886 25.9659C56.9886 26.625 57.2273 27.1288 57.7045 27.4773C58.1894 27.8182 58.803 27.9887 59.5454 27.9887Z" fill="white"/>
<path d="M33.0227 31V7.72729H42.2045C43.9697 7.72729 45.4735 8.06442 46.7159 8.73866C47.9583 9.40533 48.9053 10.3334 49.5568 11.5227C50.2159 12.7046 50.5454 14.0682 50.5454 15.6137C50.5454 17.1591 50.2121 18.5227 49.5454 19.7046C48.8788 20.8864 47.9129 21.8068 46.6477 22.4659C45.3901 23.125 43.8674 23.4546 42.0795 23.4546H36.2273V19.5114H41.2841C42.231 19.5114 43.0113 19.3485 43.625 19.0228C44.2462 18.6894 44.7083 18.2311 45.0113 17.6478C45.3219 17.0568 45.4773 16.3788 45.4773 15.6137C45.4773 14.8409 45.3219 14.1667 45.0113 13.5909C44.7083 13.0076 44.2462 12.5568 43.625 12.2387C43.0038 11.9129 42.2159 11.75 41.2613 11.75H37.9432V31H33.0227Z" fill="white"/>
</svg>
