<svg width="24" height="24" viewBox="0 0 24 24" fill="none" xmlns="http://www.w3.org/2000/svg">
<path fill-rule="evenodd" clip-rule="evenodd" d="M10.4218 11.2078C11.6322 10.6026 13.2518 10.25 15 10.25C16.7482 10.25 18.3678 10.6026 19.5782 11.2078C20.7437 11.7906 21.75 12.7344 21.75 14C21.75 15.2656 20.7437 16.2094 19.5782 16.7922C18.3678 17.3974 16.7482 17.75 15 17.75C13.2518 17.75 11.6322 17.3974 10.4218 16.7922C9.2563 16.2094 8.25 15.2656 8.25 14C8.25 12.7344 9.2563 11.7906 10.4218 11.2078ZM11.0927 12.5494C10.0867 13.0524 9.75 13.6086 9.75 14C9.75 14.3914 10.0867 14.9476 11.0927 15.4506C12.0538 15.9311 13.4342 16.25 15 16.25C16.5658 16.25 17.9462 15.9311 18.9073 15.4506C19.9133 14.9476 20.25 14.3914 20.25 14C20.25 13.6086 19.9133 13.0524 18.9073 12.5494C17.9462 12.0689 16.5658 11.75 15 11.75C13.4342 11.75 12.0538 12.0689 11.0927 12.5494Z" fill="#8FF48E"/>
<path fill-rule="evenodd" clip-rule="evenodd" d="M9 13.25C9.41421 13.25 9.75 13.5858 9.75 14V18C9.75 18.3909 10.0866 18.947 11.0927 19.4502C12.0539 19.9309 13.4343 20.25 15 20.25C16.5657 20.25 17.9461 19.9309 18.9073 19.4502C19.9134 18.947 20.25 18.3909 20.25 18V14C20.25 13.5858 20.5858 13.25 21 13.25C21.4142 13.25 21.75 13.5858 21.75 14V18C21.75 19.2651 20.7436 20.209 19.5782 20.7918C18.3679 21.3971 16.7483 21.75 15 21.75C13.2517 21.75 11.6321 21.3971 10.4218 20.7918C9.2564 20.209 8.25 19.2651 8.25 18V14C8.25 13.5858 8.58579 13.25 9 13.25Z" fill="#8FF48E"/>
<path fill-rule="evenodd" clip-rule="evenodd" d="M5.79191 2.68145C7.78386 2.10618 10.2161 2.10618 12.2081 2.68145C13.2066 2.96982 14.0639 3.39359 14.6869 3.933C15.3096 4.4721 15.75 5.178 15.75 6C15.75 6.822 15.3096 7.5279 14.6869 8.067C14.0639 8.60641 13.2066 9.03018 12.2081 9.31855C10.2161 9.89382 7.78386 9.89382 5.79191 9.31855C4.79336 9.03018 3.93607 8.60641 3.31307 8.067C2.69043 7.5279 2.25 6.822 2.25 6C2.25 5.178 2.69043 4.4721 3.31307 3.933C3.93607 3.39359 4.79336 2.96982 5.79191 2.68145ZM11.7919 4.12255C10.0719 3.62582 7.92814 3.62582 6.20809 4.12255C5.35064 4.37018 4.70793 4.70941 4.29493 5.067C3.88157 5.4249 3.75 5.75 3.75 6C3.75 6.25 3.88157 6.5751 4.29493 6.933C4.70793 7.29059 5.35064 7.62982 6.20809 7.87745C7.92814 8.37418 10.0719 8.37418 11.7919 7.87745C12.6494 7.62982 13.2921 7.29059 13.7051 6.933C14.1184 6.5751 14.25 6.25 14.25 6C14.25 5.75 14.1184 5.4249 13.7051 5.067C13.2921 4.70941 12.6494 4.37018 11.7919 4.12255Z" fill="#8FF48E"/>
<path fill-rule="evenodd" clip-rule="evenodd" d="M3 5.25C3.41421 5.25 3.75 5.58579 3.75 6V16C3.75 16.1885 3.81798 16.3629 4.04856 16.576C4.30242 16.8106 4.71045 17.0485 5.30657 17.3155C5.6846 17.4848 5.8538 17.9285 5.68448 18.3066C5.51517 18.6846 5.07146 18.8538 4.69343 18.6845C4.06155 18.4015 3.46958 18.0834 3.03044 17.6775C2.56802 17.2501 2.25 16.6995 2.25 16V6C2.25 5.58579 2.58579 5.25 3 5.25Z" fill="#8FF48E"/>
<path fill-rule="evenodd" clip-rule="evenodd" d="M3 10.25C3.41421 10.25 3.75 10.5858 3.75 11C3.75 11.1885 3.81798 11.3629 4.04856 11.576C4.30242 11.8106 4.71045 12.0485 5.30657 12.3155C5.6846 12.4848 5.8538 12.9285 5.68448 13.3066C5.51517 13.6846 5.07146 13.8538 4.69343 13.6845C4.06155 13.4015 3.46958 13.0834 3.03044 12.6775C2.56802 12.2501 2.25 11.6995 2.25 11C2.25 10.5858 2.58579 10.25 3 10.25Z" fill="#8FF48E"/>
</svg>
