<svg width="40" height="40" viewBox="0 0 40 40" fill="none" xmlns="http://www.w3.org/2000/svg">
<path fill-rule="evenodd" clip-rule="evenodd" d="M9.99996 7.91669C9.44742 7.91669 8.91752 8.13618 8.52682 8.52688C8.13612 8.91758 7.91663 9.44749 7.91663 10V13.3334C7.91663 14.0237 7.35698 14.5834 6.66663 14.5834C5.97627 14.5834 5.41663 14.0237 5.41663 13.3334V10C5.41663 8.78444 5.89951 7.61866 6.75905 6.75911C7.61859 5.89957 8.78438 5.41669 9.99996 5.41669H13.3333C14.0236 5.41669 14.5833 5.97633 14.5833 6.66669C14.5833 7.35704 14.0236 7.91669 13.3333 7.91669H9.99996Z" fill="white"/>
<path fill-rule="evenodd" clip-rule="evenodd" d="M6.66663 25.4167C7.35698 25.4167 7.91663 25.9763 7.91663 26.6667V30C7.91663 30.5526 8.13612 31.0825 8.52682 31.4732C8.91752 31.8639 9.44743 32.0834 9.99996 32.0834H13.3333C14.0236 32.0834 14.5833 32.643 14.5833 33.3334C14.5833 34.0237 14.0236 34.5834 13.3333 34.5834H9.99996C8.78438 34.5834 7.61859 34.1005 6.75905 33.2409C5.89951 32.3814 5.41663 31.2156 5.41663 30V26.6667C5.41663 25.9763 5.97627 25.4167 6.66663 25.4167Z" fill="white"/>
<path fill-rule="evenodd" clip-rule="evenodd" d="M25.4166 6.66669C25.4166 5.97633 25.9763 5.41669 26.6666 5.41669H30C31.2155 5.41669 32.3813 5.89957 33.2409 6.75911C34.1004 7.61866 34.5833 8.78444 34.5833 10V13.3334C34.5833 14.0237 34.0236 14.5834 33.3333 14.5834C32.6429 14.5834 32.0833 14.0237 32.0833 13.3334V10C32.0833 9.44749 31.8638 8.91758 31.4731 8.52688C31.0824 8.13618 30.5525 7.91669 30 7.91669H26.6666C25.9763 7.91669 25.4166 7.35704 25.4166 6.66669Z" fill="white"/>
<path fill-rule="evenodd" clip-rule="evenodd" d="M33.3333 25.4167C34.0236 25.4167 34.5833 25.9763 34.5833 26.6667V30C34.5833 31.2156 34.1004 32.3814 33.2409 33.2409C32.3813 34.1005 31.2155 34.5834 30 34.5834H26.6666C25.9763 34.5834 25.4166 34.0237 25.4166 33.3334C25.4166 32.643 25.9763 32.0834 26.6666 32.0834H30C30.5525 32.0834 31.0824 31.8639 31.4731 31.4732C31.8638 31.0825 32.0833 30.5526 32.0833 30V26.6667C32.0833 25.9763 32.6429 25.4167 33.3333 25.4167Z" fill="white"/>
<path fill-rule="evenodd" clip-rule="evenodd" d="M13.75 16.6667C13.75 15.9763 14.3096 15.4167 15 15.4167H15.0166C15.707 15.4167 16.2666 15.9763 16.2666 16.6667C16.2666 17.357 15.707 17.9167 15.0166 17.9167H15C14.3096 17.9167 13.75 17.357 13.75 16.6667Z" fill="white"/>
<path fill-rule="evenodd" clip-rule="evenodd" d="M23.75 16.6667C23.75 15.9763 24.3096 15.4167 25 15.4167H25.0166C25.707 15.4167 26.2666 15.9763 26.2666 16.6667C26.2666 17.357 25.707 17.9167 25.0166 17.9167H25C24.3096 17.9167 23.75 17.357 23.75 16.6667Z" fill="white"/>
<path fill-rule="evenodd" clip-rule="evenodd" d="M14.9585 24.1072C15.4516 23.624 16.243 23.6321 16.7262 24.1252C17.1529 24.5607 17.6623 24.9068 18.2244 25.143C18.7866 25.3792 19.3902 25.5009 20 25.5009C20.6097 25.5009 21.2134 25.3792 21.7755 25.143C22.3377 24.9068 22.847 24.5607 23.2738 24.1252C23.7569 23.6321 24.5483 23.624 25.0414 24.1072C25.5346 24.5903 25.5426 25.3817 25.0595 25.8748C24.4 26.548 23.6128 27.0827 22.744 27.4478C21.8752 27.8128 20.9423 28.0009 20 28.0009C19.0576 28.0009 18.1247 27.8128 17.2559 27.4478C16.3872 27.0827 15.6 26.548 14.9404 25.8748C14.4573 25.3817 14.4654 24.5903 14.9585 24.1072Z" fill="white"/>
</svg>
