<svg width="24" height="24" viewBox="0 0 24 24" fill="none" xmlns="http://www.w3.org/2000/svg">
<path fill-rule="evenodd" clip-rule="evenodd" d="M6 5.75C5.66848 5.75 5.35054 5.8817 5.11612 6.11612C4.8817 6.35054 4.75 6.66848 4.75 7V19C4.75 19.3315 4.8817 19.6495 5.11612 19.8839C5.35054 20.1183 5.66848 20.25 6 20.25H13C13.4142 20.25 13.75 20.5858 13.75 21C13.75 21.4142 13.4142 21.75 13 21.75H6C5.27065 21.75 4.57118 21.4603 4.05546 20.9445C3.53973 20.4288 3.25 19.7293 3.25 19V7C3.25 6.27065 3.53973 5.57118 4.05546 5.05546C4.57118 4.53973 5.27065 4.25 6 4.25H18C18.7293 4.25 19.4288 4.53973 19.9445 5.05546C20.4603 5.57118 20.75 6.27065 20.75 7V10C20.75 10.4142 20.4142 10.75 20 10.75C19.5858 10.75 19.25 10.4142 19.25 10V7C19.25 6.66848 19.1183 6.35054 18.8839 6.11612C18.6495 5.8817 18.3315 5.75 18 5.75H6Z" fill="#FFA235"/>
<path fill-rule="evenodd" clip-rule="evenodd" d="M16 2.25C16.4142 2.25 16.75 2.58579 16.75 3V7C16.75 7.41421 16.4142 7.75 16 7.75C15.5858 7.75 15.25 7.41421 15.25 7V3C15.25 2.58579 15.5858 2.25 16 2.25Z" fill="#FFA235"/>
<path fill-rule="evenodd" clip-rule="evenodd" d="M8 2.25C8.41421 2.25 8.75 2.58579 8.75 3V7C8.75 7.41421 8.41421 7.75 8 7.75C7.58579 7.75 7.25 7.41421 7.25 7V3C7.25 2.58579 7.58579 2.25 8 2.25Z" fill="#FFA235"/>
<path fill-rule="evenodd" clip-rule="evenodd" d="M3.25 11C3.25 10.5858 3.58579 10.25 4 10.25H16.5C16.9142 10.25 17.25 10.5858 17.25 11C17.25 11.4142 16.9142 11.75 16.5 11.75H4C3.58579 11.75 3.25 11.4142 3.25 11Z" fill="#FFA235"/>
<path fill-rule="evenodd" clip-rule="evenodd" d="M16.909 14.909C17.331 14.4871 17.9033 14.25 18.5 14.25H21C21.4142 14.25 21.75 14.5858 21.75 15C21.75 15.4142 21.4142 15.75 21 15.75H18.5C18.3011 15.75 18.1103 15.829 17.9697 15.9697C17.829 16.1103 17.75 16.3011 17.75 16.5C17.75 16.6989 17.829 16.8897 17.9697 17.0303C18.1103 17.171 18.3011 17.25 18.5 17.25H19.5C20.0967 17.25 20.669 17.4871 21.091 17.909C21.5129 18.331 21.75 18.9033 21.75 19.5C21.75 20.0967 21.5129 20.669 21.091 21.091C20.669 21.5129 20.0967 21.75 19.5 21.75H17C16.5858 21.75 16.25 21.4142 16.25 21C16.25 20.5858 16.5858 20.25 17 20.25H19.5C19.6989 20.25 19.8897 20.171 20.0303 20.0303C20.171 19.8897 20.25 19.6989 20.25 19.5C20.25 19.3011 20.171 19.1103 20.0303 18.9697C19.8897 18.829 19.6989 18.75 19.5 18.75H18.5C17.9033 18.75 17.331 18.5129 16.909 18.091C16.4871 17.669 16.25 17.0967 16.25 16.5C16.25 15.9033 16.4871 15.331 16.909 14.909Z" fill="#FFA235"/>
<path fill-rule="evenodd" clip-rule="evenodd" d="M19 13.25C19.4142 13.25 19.75 13.5858 19.75 14V15C19.75 15.4142 19.4142 15.75 19 15.75C18.5858 15.75 18.25 15.4142 18.25 15V14C18.25 13.5858 18.5858 13.25 19 13.25ZM19 20.25C19.4142 20.25 19.75 20.5858 19.75 21V22C19.75 22.4142 19.4142 22.75 19 22.75C18.5858 22.75 18.25 22.4142 18.25 22V21C18.25 20.5858 18.5858 20.25 19 20.25Z" fill="#FFA235"/>
</svg>
