<svg width="24" height="24" viewBox="0 0 24 24" fill="none" xmlns="http://www.w3.org/2000/svg">
<path fill-rule="evenodd" clip-rule="evenodd" d="M5.15533 5.15533C4.88559 5.42507 4.75 5.74392 4.75 6V21C4.75 21.4142 4.41421 21.75 4 21.75C3.58579 21.75 3.25 21.4142 3.25 21V6C3.25 5.25608 3.61441 4.57493 4.09467 4.09467C4.57493 3.61441 5.25608 3.25 6 3.25H11C11.7439 3.25 12.4251 3.61441 12.9053 4.09467C13.3856 4.57493 13.75 5.25608 13.75 6V21C13.75 21.4142 13.4142 21.75 13 21.75C12.5858 21.75 12.25 21.4142 12.25 21V6C12.25 5.74392 12.1144 5.42507 11.8447 5.15533C11.5749 4.88559 11.2561 4.75 11 4.75H6C5.74392 4.75 5.42507 4.88559 5.15533 5.15533Z" fill="white"/>
<path fill-rule="evenodd" clip-rule="evenodd" d="M15.25 8C15.25 7.58579 15.5858 7.25 16 7.25H18C18.7439 7.25 19.4251 7.61441 19.9053 8.09467C20.3856 8.57493 20.75 9.25608 20.75 10V21C20.75 21.4142 20.4142 21.75 20 21.75C19.5858 21.75 19.25 21.4142 19.25 21V10C19.25 9.74392 19.1144 9.42507 18.8447 9.15533C18.5749 8.88559 18.2561 8.75 18 8.75H16C15.5858 8.75 15.25 8.41421 15.25 8Z" fill="white"/>
<path fill-rule="evenodd" clip-rule="evenodd" d="M2.25 21C2.25 20.5858 2.58579 20.25 3 20.25H21C21.4142 20.25 21.75 20.5858 21.75 21C21.75 21.4142 21.4142 21.75 21 21.75H3C2.58579 21.75 2.25 21.4142 2.25 21Z" fill="white"/>
<path d="M11 8C11 8.55228 10.5523 9 10 9C9.44772 9 9 8.55228 9 8C9 7.44772 9.44772 7 10 7C10.5523 7 11 7.44772 11 8Z" fill="white"/>
<path d="M11 12C11 12.5523 10.5523 13 10 13C9.44772 13 9 12.5523 9 12C9 11.4477 9.44772 11 10 11C10.5523 11 11 11.4477 11 12Z" fill="white"/>
<path d="M11 16C11 16.5523 10.5523 17 10 17C9.44772 17 9 16.5523 9 16C9 15.4477 9.44772 15 10 15C10.5523 15 11 15.4477 11 16Z" fill="white"/>
<path d="M17 12C17 12.5523 16.5523 13 16 13C15.4477 13 15 12.5523 15 12C15 11.4477 15.4477 11 16 11C16.5523 11 17 11.4477 17 12Z" fill="white"/>
<path d="M17 16C17 16.5523 16.5523 17 16 17C15.4477 17 15 16.5523 15 16C15 15.4477 15.4477 15 16 15C16.5523 15 17 15.4477 17 16Z" fill="white"/>
<path d="M8 8C8 8.55228 7.55228 9 7 9C6.44772 9 6 8.55228 6 8C6 7.44772 6.44772 7 7 7C7.55228 7 8 7.44772 8 8Z" fill="white"/>
<path d="M8 12C8 12.5523 7.55228 13 7 13C6.44772 13 6 12.5523 6 12C6 11.4477 6.44772 11 7 11C7.55228 11 8 11.4477 8 12Z" fill="white"/>
<path d="M8 16C8 16.5523 7.55228 17 7 17C6.44772 17 6 16.5523 6 16C6 15.4477 6.44772 15 7 15C7.55228 15 8 15.4477 8 16Z" fill="white"/>
</svg>
