<svg width="390" height="844" viewBox="0 0 390 844" fill="none" xmlns="http://www.w3.org/2000/svg">
<path d="M-311.935 -42.6148C-311.932 -59.3733 -305.271 -75.4444 -293.417 -87.2941C-281.563 -99.1438 -265.487 -105.802 -248.722 -105.805L-204.604 -105.87C-173.479 -104.168 -143.869 -91.8947 -120.67 -71.0826L89.2982 138.809C104.283 153.788 112.702 174.104 112.702 195.287C112.702 216.471 104.284 236.788 89.2989 251.766L-227.739 568.688C-234.625 575.542 -243.388 580.201 -252.921 582.085C-262.455 583.969 -272.332 582.993 -281.309 579.27C-290.286 575.549 -297.96 569.255 -303.363 561.182C-308.767 553.109 -311.659 543.616 -311.674 533.902L-311.935 -42.6148ZM328.397 909C338.123 908.985 347.625 906.086 355.706 900.678C363.786 895.269 370.082 887.58 373.798 878.602C377.514 869.615 378.483 859.729 376.583 850.194C374.69 840.666 370.006 831.902 363.132 825.029L45.8327 507.845C30.8484 492.865 10.524 484.451 -10.6674 484.451C-31.8587 484.451 -52.1831 492.865 -67.1674 507.845L-277.201 717.799C-297.989 741.011 -310.261 770.601 -312 801.709L-311.934 845.808C-311.932 862.567 -305.272 878.64 -293.418 890.486C-281.564 902.333 -265.487 908.992 -248.722 909H328.397ZM344.102 295.282C359.11 310.251 379.445 318.651 400.651 318.639C421.85 318.626 442.179 310.202 457.166 295.217L667.134 85.3256C687.921 62.1152 700.199 32.5262 701.939 1.42057L701.931 -42.6156C701.924 -59.3885 695.254 -75.4711 683.388 -87.3315C671.522 -99.1918 655.435 -105.86 638.655 -105.87L61.7983 -106C52.081 -105.985 42.5857 -103.094 34.509 -97.6921C26.4323 -92.2906 20.136 -84.6196 16.4144 -75.6458C12.6927 -66.6727 11.7114 -56.798 13.5955 -47.2681C15.4788 -37.7381 20.1429 -28.9794 26.9993 -22.0957L344.102 295.282ZM510.606 872.911C533.812 893.736 563.459 905.987 594.601 907.627H638.655C655.42 907.627 671.499 900.967 683.35 889.121C695.208 877.267 701.87 861.194 701.87 844.442L702 267.662C702.03 257.929 699.161 248.405 693.766 240.303C688.371 232.201 680.686 225.885 671.69 222.158C662.693 218.43 652.795 217.457 643.249 219.366C633.702 221.274 624.934 225.977 618.066 232.876L300.896 549.928C285.906 564.912 277.478 585.236 277.466 606.427C277.454 627.618 285.858 647.947 300.831 662.952L510.606 872.911Z" fill="#57F2BE"/>
</svg>
